#N canvas -8 -8 1366 695 10;
#X declare -lib zexy;
#X obj 102 509 soundfiler;
#X floatatom 103 718 10 0 0 0 - - -;
#X floatatom 533 640 12 0 0 0 - - -;
#X obj 518 666 *~;
#X obj 190 634 samplerate~;
#X floatatom 103 655 12 0 0 0 - - -;
#X floatatom 102 536 12 0 0 0 - - -;
#X msg 849 402 0;
#X msg 889 402 1;
#X obj 102 561 s \$0-cantidad-de-muestras;
#X obj 103 590 r \$0-cantidad-de-muestras;
#X obj 533 616 r \$0-cantidad-de-muestras;
#X obj 518 415 *;
#X floatatom 534 392 10 0 0 0 - - -;
#X floatatom 190 655 10 0 0 0 - - -;
#X floatatom 518 337 10 0 0 0 - - -;
#X floatatom 518 439 10 0 0 0 - - -;
#X obj 533 564 nbx 5 14 -1e+037 1e+037 0 0 empty empty empty 0 -8 0
10 -262144 -1 -1 0 256;
#X msg 851 498 0;
#X floatatom 558 487 10 0 0 0 - - -;
#X obj 851 526 s \$0-phasor-fase;
#X obj 190 613 loadbang;
#X obj 103 766 s \$0-frecuencia-de-lectura-sin-transposicion;
#X obj 534 367 r \$0-frecuencia-de-lectura-sin-transposicion;
#X obj 518 689 s~ \$0-phasor;
#X obj 533 586 s \$0-posicion;
#X obj 558 463 r \$0-phasor-fase;
#X obj 518 311 r \$0-frecuencia-de-lectura-multiplicador;
#X obj 849 435 s \$0-frecuencia-de-lectura-multiplicador;
#X obj 102 413 pack s f;
#X msg 102 474 read -resize \$1 \$2-sample;
#X obj 147 388 f \$0;
#X obj 147 364 loadbang;
#X obj 851 606 tabread4~ \$0-sample;
#X obj 101 310 loadbang;
#X obj 101 337 symbol \$1;
#X obj 828 370 r detener;
#X obj 851 473 r reiniciar;
#X obj 851 580 r~ \$0-phasor;
#X obj 282 561 s \$0-sample-view;
#X obj 282 509 soundfiler;
#X msg 282 474 read -resize \$1 \$2-sample-view;
#X msg 282 536 normalize 0.7;
#X obj 103 170 hsl 595 50 0 1 0 0 empty \$0-posicion empty -2 -8 0
10 -237102 -258113 -1 0 1;
#N canvas 0 22 450 300 (subpatch) 0;
#X array \$0-sample-view 1.05946e+007 float 2;
#X coords 0 1 1.05946e+007 -1 600 50 1 0 0;
#X restore 100 170 graph;
#X obj 190 742 s \$0-duracion;
#X obj 852 706 *~;
#X msg 867 657 \$1 100;
#X obj 867 680 line~;
#X obj 103 680 expr $f2 / $f1 \; $f1 / $f2;
#X floatatom 190 718 10 0 0 0 - - -;
#X obj 867 634 r \$0-escuchar;
#X obj 100 260 table \$0-sample;
#X obj 101 151 cnv 15 100 60 empty \$0-encabezado sonido 02.Vidala_Dolorosa.wav
20 12 0 14 -233017 -66577 0;
#X obj 428 58 nbx 5 14 -1e+037 1e+037 0 0 empty empty empty 0 -8 0
10 -262144 -1 -1 0 256;
#X obj 428 33 r \$0-posicion;
#X obj 428 127 *;
#X obj 556 127 r \$0-duracion;
#X obj 428 152 nbx 5 14 -1e+037 1e+037 0 0 empty empty empty 0 -8 0
10 -128992 -262144 -1 0 256;
#X obj 682 152 tgl 15 1 empty empty empty 17 7 0 10 -128992 -262144
-1 1 1;
#X obj 443 79 r \$0-duracion;
#X obj 682 234 s \$0-escuchar;
#X text 339 152 Tiempo actual;
#X text 500 152 Duración;
#X obj 556 152 nbx 5 14 -1e+037 1e+037 0 0 empty empty empty 0 -8 0
10 -128992 -262144 -1 240.241 256;
#X text 627 152 Escuchar;
#X obj 533 539 unsig~ 40;
#X obj 518 511 phasor~;
#X obj 852 737 throw~ master;
#X obj 443 102 nbx 5 14 -1e+037 1e+037 0 0 empty empty empty 0 -8 0
10 -262144 -1 -1 240.241 256;
#X text 100 226 En este array se visualiza la forma de onda normalizada
(\$0-sample-view), f 76;
#X text 200 261 Aquí adentro está el audio que se reproduce (\$0-sample)
;
#X text 846 261 Comandos recibidos desde el patch principal;
#X obj 101 4 declare -lib zexy;
#X obj 849 168 l2s;
#X obj 849 94 loadbang;
#X obj 849 118 symbol \$1;
#X obj 849 214 s \$0-encabezado;
#X msg 849 191 label \$1;
#X msg 849 143 sonido \$1;
#X text 102 130 Encabezado;
#X obj 957 404 hsl 128 15 -1 1 0 0 empty empty empty -2 -8 0 10 -262144
-1 -1 0 1;
#X obj 306 125 switch~;
#X obj 305 153 tgl 15 0 empty empty empty 17 7 0 10 -262144 -1 -1 0
1;
#X obj 983 374 r velocidad;
#X obj 1036 481 onebang;
#X obj 233 120 r segundo;
#X obj 220 403 print;
#X obj 935 334 inlet;
#X connect 0 0 6 0;
#X connect 1 0 22 0;
#X connect 2 0 3 1;
#X connect 3 0 24 0;
#X connect 4 0 14 0;
#X connect 5 0 49 0;
#X connect 6 0 9 0;
#X connect 7 0 28 0;
#X connect 8 0 28 0;
#X connect 10 0 5 0;
#X connect 11 0 2 0;
#X connect 12 0 16 0;
#X connect 13 0 12 1;
#X connect 14 0 49 1;
#X connect 15 0 12 0;
#X connect 16 0 67 0;
#X connect 17 0 25 0;
#X connect 18 0 20 0;
#X connect 19 0 67 1;
#X connect 21 0 4 0;
#X connect 23 0 13 0;
#X connect 26 0 19 0;
#X connect 27 0 15 0;
#X connect 29 0 30 0;
#X connect 29 0 41 0;
#X connect 30 0 0 0;
#X connect 31 0 29 1;
#X connect 31 0 87 0;
#X connect 32 0 31 0;
#X connect 33 0 46 0;
#X connect 34 0 35 0;
#X connect 35 0 29 0;
#X connect 36 0 7 0;
#X connect 37 0 18 0;
#X connect 38 0 33 0;
#X connect 40 0 42 0;
#X connect 41 0 40 0;
#X connect 42 0 39 0;
#X connect 46 0 68 0;
#X connect 47 0 48 0;
#X connect 48 0 46 1;
#X connect 49 0 1 0;
#X connect 49 1 50 0;
#X connect 50 0 45 0;
#X connect 51 0 47 0;
#X connect 54 0 56 0;
#X connect 55 0 54 0;
#X connect 56 0 58 0;
#X connect 57 0 64 0;
#X connect 59 0 61 0;
#X connect 60 0 69 0;
#X connect 66 0 17 0;
#X connect 67 0 3 0;
#X connect 67 0 66 0;
#X connect 69 0 56 1;
#X connect 74 0 78 0;
#X connect 75 0 76 0;
#X connect 76 0 79 0;
#X connect 78 0 77 0;
#X connect 79 0 74 0;
#X connect 81 0 28 0;
#X connect 83 0 82 0;
#X connect 84 0 81 0;
#X connect 86 0 83 0;
#X connect 88 0 28 0;
#X coords 0 -1 1 1 600 70 1 100 150;
